<svg xmlns="http://www.w3.org/2000/svg" xmlns:xlink="http://www.w3.org/1999/xlink" width="160" height="160" viewBox="0 0 166.022 195.475">
  <defs>
    <clipPath id="clip-path">
      <path id="Path_12" data-name="Path 12" d="M137,121h52.46v60.739H137Zm0,0" transform="translate(-137 -121)"/>
    </clipPath>
    <clipPath id="clip-path-2">
      <path id="Path_14" data-name="Path 14" d="M109,62.926h88.4v93.5H109Zm0,0" transform="translate(-109 -62.926)"/>
    </clipPath>
    <clipPath id="clip-path-3">
      <path id="Path_16" data-name="Path 16" d="M159,192h28.2v20.688H159Zm0,0" transform="translate(-159 -192)"/>
    </clipPath>
    <clipPath id="clip-path-4">
      <path id="Path_19" data-name="Path 19" d="M143,186h22v24.073H143Zm0,0" transform="translate(-143 -186)"/>
    </clipPath>
  </defs>
  <g id="LOGO" transform="translate(-41.599 -6.265)">
    <g id="Group_30" data-name="Group 30" transform="translate(96.178 71.522)" clip-path="url(#clip-path)">
      <path id="Path_11" data-name="Path 11" d="M189.115,180.931l-26.254-29.914-.436.386.555.176c.011-.033.029-.086.048-.156l-.564-.152.56.165a.787.787,0,0,0,.029-.2.919.919,0,0,0-.035-.247,2.26,2.26,0,0,0-.152-.39c-.119-.251-.3-.555-.52-.925-.789-1.282-2.219-3.325-3.977-5.762s-3.838-5.255-5.912-8.062c-2.492-3.376-4.951-6.558-6.914-8.995-.981-1.219-1.838-2.252-2.514-3.034-.339-.392-.63-.721-.877-.981a6.29,6.29,0,0,0-.6-.582,4.12,4.12,0,0,0-.754-.485,2.142,2.142,0,0,0-.925-.229,1.572,1.572,0,0,0-.914.286,2.026,2.026,0,0,0-.549.584,4.432,4.432,0,0,0-.542,1.39,12.339,12.339,0,0,0-.271,2.146c-.011.223-.018.45-.018.681a20.067,20.067,0,0,0,1.807,7.761,50.773,50.773,0,0,0,6.245,10.4,83.089,83.089,0,0,0,5.454,6.932,13.334,13.334,0,0,0,2.527,2.135,8.907,8.907,0,0,0,2.909,1.192,4.409,4.409,0,0,0,.936.1,5.443,5.443,0,0,0,1.536-.236l-.165-.562-.476.339,9.6,13.49.474-.339-.531.242,0,0a.51.51,0,0,0,.046.084l9,13.472a.585.585,0,1,0,.972-.652l-9-13.47-.485.326.531-.242v0a.727.727,0,0,0-.057-.1l-9.6-13.487a.578.578,0,0,0-.641-.22,4.225,4.225,0,0,1-1.2.187,3.316,3.316,0,0,1-.69-.071,7.765,7.765,0,0,1-2.534-1.042,15.293,15.293,0,0,1-3.488-3.294c-1.216-1.463-2.543-3.3-4.18-5.484a49.6,49.6,0,0,1-6.106-10.162,18.9,18.9,0,0,1-1.714-7.3c0-.209,0-.416.015-.619a7.374,7.374,0,0,1,.54-2.812,1.1,1.1,0,0,1,.322-.412.427.427,0,0,1,.251-.077.96.96,0,0,1,.421.117,2.771,2.771,0,0,1,.531.344,5.723,5.723,0,0,1,.48.469c.4.423.97,1.08,1.664,1.91,2.087,2.494,5.295,6.58,8.552,10.991,2.607,3.532,5.227,7.084,7.19,9.849.981,1.384,1.8,2.569,2.364,3.453.284.438.5.8.643,1.071a2.8,2.8,0,0,1,.15.306c.013.035.02.059.024.066v0l.253-.055h-.26a.472.472,0,0,0,.007.055l.253-.055h.194l-.434-.128a.543.543,0,0,0-.02.128h.454l-.434-.128,0,.011c-.007.026-.018.057-.033.106a.584.584,0,0,0,.117.564L188.24,181.7a.584.584,0,0,0,.877-.771" transform="translate(-137.252 -121.237)" fill="#fff" stroke="#fff" stroke-width="0.5"/>
    </g>
    <g id="Group_31" data-name="Group 31" transform="translate(80.384 38.763)" clip-path="url(#clip-path-2)">
      <path id="Path_13" data-name="Path 13" d="M176.3,156.359a12.234,12.234,0,0,0,1.6-.11,4.756,4.756,0,0,0,1.075-.278,2.6,2.6,0,0,0,1.271-1.027,3.412,3.412,0,0,0,.452-1.84v-.035l-1.941-33.028-.582.033.044.584a20.73,20.73,0,1,0-5.74-40.982l.117.573.575-.1A20.684,20.684,0,0,0,132.652,78.9l.566.134.1-.575a20.728,20.728,0,1,0-6.423,40.954l.082-.577-.582-.046-2.686,34.262v.048a3.429,3.429,0,0,0,.45,1.838,2.492,2.492,0,0,0,.9.851,4.576,4.576,0,0,0,1.8.5,20.477,20.477,0,0,0,2.087.071h.275a.584.584,0,0,0,0-1.168h-.275c-.646,0-1.247,0-1.774-.046a5.289,5.289,0,0,1-1.033-.17,2.152,2.152,0,0,1-.553-.234,1.29,1.29,0,0,1-.507-.555,2.5,2.5,0,0,1-.2-1.086h-.584l.582.044,2.686-34.262a.584.584,0,0,0-.5-.624,19.562,19.562,0,1,1,6.064-38.649.579.579,0,0,0,.663-.441,19.52,19.52,0,0,1,38.239,1.174.586.586,0,0,0,.69.474,19.56,19.56,0,1,1,5.418,38.671.585.585,0,0,0-.538.617l1.943,33.028.582-.033h-.584a2.409,2.409,0,0,1-.223,1.128,1.248,1.248,0,0,1-.386.447,2.475,2.475,0,0,1-1.042.388,10.132,10.132,0,0,1-1.6.123.584.584,0,1,0,.018,1.168" transform="translate(-109.075 -62.936)" fill="#fff" stroke="#fff" stroke-width="1"/>
    </g>
    <g id="Group_32" data-name="Group 32" transform="translate(108.588 111.572)" clip-path="url(#clip-path-3)">
      <path id="Path_15" data-name="Path 15" d="M173.45,193.048,159.3,212.04a.584.584,0,0,0,.469.932h26.884a.584.584,0,1,0,0-1.168H160.932l13.452-18.057a.586.586,0,0,0-.119-.817.579.579,0,0,0-.815.119" transform="translate(-159.081 -192.354)" fill="#fff" stroke="#fff" stroke-width="0.5"/>
    </g>
    <path id="Path_17" data-name="Path 17" d="M185.946,157.1l5.5-6.242-.013.758a8.14,8.14,0,0,1-1.752-3.629,5.764,5.764,0,0,1,0-2.076,5.87,5.87,0,0,1,.734-1.932,7.458,7.458,0,0,1,.586-.835c.11-.13.216-.258.335-.381.1-.115.22-.229.333-.344.452-.469.914-.892,1.368-1.34l1.4-1.291c.465-.43.943-.844,1.415-1.265s.941-.844,1.423-1.254l1.439-1.234c.48-.41.959-.824,1.448-1.225l1.456-1.21,1.456-1.212,1.472-1.19,2.948-2.378,0,0a.29.29,0,0,1,.372.011l.886.806.007.007a.274.274,0,0,1,.015.386l-.009.009c-1.181,1.174-2.347,2.364-3.512,3.554s-2.336,2.375-3.488,3.576l-3.475,3.592-1.736,1.8-.868.9-.055.055.013-.011-.009.007-.011.018-.024.031a.7.7,0,0,0-.04.075.474.474,0,0,0-.04.192.484.484,0,0,0,.15.342.454.454,0,0,0,.375.121.46.46,0,0,0,.185-.062.754.754,0,0,0,.176-.161l.868-.9,1.734-1.8,3.473-3.594,3.479-3.587c1.163-1.192,2.325-2.386,3.5-3.57l.02-.018a.3.3,0,0,1,.41,0l.857.837a.258.258,0,0,1,.022.364l-6.626,7.468L200.83,143l-1.657,1.866-.829.934-.051.059-.042.051a.781.781,0,0,0-.04.077.429.429,0,0,0-.04.2.482.482,0,0,0,.159.359.494.494,0,0,0,.375.119.471.471,0,0,0,.271-.123l.037-.037.051-.059.829-.932,1.657-1.866,3.312-3.735,3.305-3.741,3.294-3.75a.3.3,0,0,1,.419-.029l0,0,.914.776a.323.323,0,0,1,.046.441l-.009.013-6.275,7.78-3.136,3.891-1.567,1.946-.784.972-.1.121c0,.011-.018.031-.031.059a.4.4,0,0,0,.1.458.392.392,0,0,0,.308.095.424.424,0,0,0,.154-.051l.066-.051.02-.018.048-.062.784-.972L204,145.846l3.136-3.894,6.271-7.783a.369.369,0,0,1,.518-.053l.013.011.855.842.024.022a.294.294,0,0,1,.033.375l-2.018,3.208-1.009,1.6-2.062,3.182c-.339.531-.694,1.055-1.047,1.582l-1.055,1.573c-.348.529-.716,1.044-1.075,1.564s-.718,1.042-1.088,1.556l-1.117,1.54c-.388.5-.758,1.018-1.166,1.516-.1.126-.2.249-.306.377-.126.152-.212.24-.333.368a6.775,6.775,0,0,1-.765.688,5.8,5.8,0,0,1-1.833.956,5.66,5.66,0,0,1-2.056.242,8.1,8.1,0,0,1-3.8-1.32l.784-.141-5.462,7.329a.583.583,0,1,1-.934-.7l5.46-7.331a.584.584,0,0,1,.773-.148l.011.007a6.966,6.966,0,0,0,3.243,1.2,4.676,4.676,0,0,0,1.679-.163,4.772,4.772,0,0,0,1.518-.76,6.191,6.191,0,0,0,.652-.562c.1-.1.231-.236.306-.328.1-.112.2-.234.3-.353.4-.472.778-.976,1.168-1.465l1.133-1.5c.377-.5.74-1.018,1.111-1.525s.74-1.018,1.1-1.538l1.08-1.549c.361-.518.725-1.033,1.073-1.558l1.058-1.567,1.058-1.569,3.107-4.746.055.394-.934-.751.529-.044L207.69,142.4l-3.144,3.883-1.573,1.943-.784.972-.048.059c-.046.051-.06.062-.09.093a.989.989,0,0,1-.183.137,1.087,1.087,0,0,1-1.642-.934,1.066,1.066,0,0,1,.09-.445,1.245,1.245,0,0,1,.126-.214l.1-.121.784-.972,1.573-1.941,3.142-3.885,6.286-7.772.037.454-.875-.822.421-.024-3.334,3.715-3.321,3.728-3.314,3.733-1.657,1.869-.828.932-.051.059-.075.073a1.04,1.04,0,0,1-.167.126.983.983,0,0,1-.4.132,1,1,0,0,1-1.117-.994,1.021,1.021,0,0,1,.086-.41,1.107,1.107,0,0,1,.112-.192l.057-.073.051-.057.829-.934,4.971-5.6,6.628-7.468.022.366-.93-.758.43-.013c-1.152,1.2-2.316,2.4-3.477,3.587l-3.492,3.572-3.5,3.565-2.624,2.673a1.349,1.349,0,0,1-.293.249,1.025,1.025,0,0,1-1.183-.11,1,1,0,0,1-.348-.765,1.033,1.033,0,0,1,.086-.414.962.962,0,0,1,.115-.2l.066-.079.055-.055.875-.892,1.75-1.783,3.5-3.567c1.168-1.185,2.322-2.386,3.481-3.583s2.318-2.393,3.462-3.6l.013.4-.9-.789.375.009-2.9,2.433-1.445,1.216-2.86,2.472c-.48.41-.947.831-1.417,1.249l-1.41,1.258c-.472.416-.93.848-1.393,1.274s-.93.848-1.382,1.285l-1.357,1.3c-.436.445-.895.886-1.311,1.333-.106.112-.212.223-.317.342s-.192.223-.284.335a6.021,6.021,0,0,0-.485.725,4.678,4.678,0,0,0-.542,3.292,7.02,7.02,0,0,0,1.578,3.085l.007.007a.589.589,0,0,1-.02.754l-5.5,6.242a.584.584,0,0,1-.875-.773" transform="translate(-62.094 -52.857)" fill="#fff" stroke="#fff" stroke-width="0.5"/>
    <g id="Group_33" data-name="Group 33" transform="translate(99.563 108.188)" clip-path="url(#clip-path-4)">
      <path id="Path_18" data-name="Path 18" d="M144.688,209.935l19.968-22.665a.584.584,0,0,0-.875-.773l-19.968,22.667a.583.583,0,1,0,.875.771" transform="translate(-143.291 -186.131)" fill="#fff" stroke="#fff" stroke-width="0.5"/>
    </g>
    <g id="Group_95" data-name="Group 95">
      <g id="Group_36" data-name="Group 36" transform="translate(43.354 175.207)">
        <g id="Group_35" data-name="Group 35" transform="translate(0)">
          <g id="Group_34" data-name="Group 34">
            <path id="Path_20" data-name="Path 20" d="M6.2-26.993V-38.638c0-1.119-.1-6.364.575-7.069H4.309c.672.705.577,5.949.577,7.069v11.645c0,1.119.095,6.366-.577,7.069H6.772C6.1-20.627,6.2-25.874,6.2-26.993Zm32.946,3.486-.734-1.822a13.325,13.325,0,0,1-9.757,4.189c-7.421,0-15.2-5.694-19.769-11.738,2.88-3.008,5.694-5.982,8.6-8.99.8-.831,3.263-3.455,4.416-3.838H18.865C17.84-43.819,9.108-34.862,7.189-32.815c5.949,7.421,13.435,12.89,21.3,12.89A18.271,18.271,0,0,0,39.143-23.507Zm0,0" transform="translate(-4.309 45.707)" fill="#fff" stroke="#fff" stroke-width="1.5"/>
          </g>
        </g>
      </g>
      <g id="Group_39" data-name="Group 39" transform="translate(83.659 175.207)">
        <g id="Group_38" data-name="Group 38" transform="translate(0)">
          <g id="Group_37" data-name="Group 37">
            <path id="Path_21" data-name="Path 21" d="M6.14-26.993V-38.638c0-1.119-.095-6.364.577-7.069H4.254c.672.705.575,5.949.575,7.069v11.645c0,1.119.1,6.366-.575,7.069H6.717C6.045-20.627,6.14-25.874,6.14-26.993Zm0,0" transform="translate(-4.254 45.707)" fill="#fff" stroke="#fff" stroke-width="1.5"/>
          </g>
        </g>
      </g>
      <g id="Group_42" data-name="Group 42" transform="translate(91.592 175.207)">
        <g id="Group_41" data-name="Group 41" transform="translate(0)">
          <g id="Group_40" data-name="Group 40">
            <path id="Path_22" data-name="Path 22" d="M15.544-24.915V-44.588h4.638c1.119,0,4.544.064,5.343.769l-.672-1.888H4.926l-.672,1.983c1.055-.831,5.694-.864,7.1-.864h2.878v19.736c0,.833-.031,4.352-.575,4.927h2.463C15.578-20.5,15.544-24.051,15.544-24.915Zm0,0" transform="translate(-4.254 45.707)" fill="#fff" stroke="#fff" stroke-width="1.5"/>
          </g>
        </g>
      </g>
      <g id="Group_45" data-name="Group 45" transform="translate(117.886 175.015)">
        <g id="Group_44" data-name="Group 44" transform="translate(0)">
          <g id="Group_43" data-name="Group 43">
            <path id="Path_23" data-name="Path 23" d="M19.045-30.021l-.353-1.728c-1.119,1.664-4.094,2.688-6.11,2.688-4.669,0-7.8-3.169-7.8-7.966,0-4.766,3.072-7.932,7.8-7.932,1.985,0,4.96.992,6.11,2.686L19.045-44a11.3,11.3,0,0,0-6.463-2.047A8.762,8.762,0,0,0,3.4-37.026a8.769,8.769,0,0,0,9.18,9.052A11.549,11.549,0,0,0,19.045-30.021Zm0,0" transform="translate(-3.402 46.047)" fill="#fff" stroke="#fff" stroke-width="1.5"/>
          </g>
        </g>
      </g>
      <g id="Group_48" data-name="Group 48" transform="translate(138.519 175.207)">
        <g id="Group_47" data-name="Group 47" transform="translate(0)">
          <g id="Group_46" data-name="Group 46">
            <path id="Path_24" data-name="Path 24" d="M6.14-29.137c0-2.111.833-3.2,3.039-3.2h9.374c1.119,0,2.558-.095,3.294-1.086v6.43c0,1.086.1,6.4-.575,7.069h2.463c-.641-.672-.577-5.982-.577-7.069V-38.638c0-1.086-.064-6.4.577-7.069H21.271c.767.769.575,7.932.575,9.213,0,2.463-.992,2.944-3.294,2.944H9.179A3.478,3.478,0,0,0,6.14-32.3v-6.335c0-1.086-.095-6.4.577-7.069H4.254c.672.672.575,5.982.575,7.069v11.645c0,1.086.1,6.4-.575,7.069H6.717C5.981-20.691,6.14-27.857,6.14-29.137Zm0,0" transform="translate(-4.254 45.707)" fill="#fff" stroke="#fff" stroke-width="1.5"/>
          </g>
        </g>
      </g>
      <g id="Group_51" data-name="Group 51" transform="translate(164.652 175.207)">
        <g id="Group_50" data-name="Group 50" transform="translate(0)">
          <g id="Group_49" data-name="Group 49">
            <path id="Path_25" data-name="Path 25" d="M13.356-29.2H8.046v-7.2h4.383c.769,0,4.35-.064,4.863.383v-1.824c-.513.45-4.094.386-4.863.386H8.046v-7.038h4.83c1.313,0,6.11-.033,6.974.7-.031-.128-.48-1.886-.447-1.919H6.352c.447.48.383,4.063.383,4.863v8c0,.767.064,4.35-.383,4.863h13.5l.447-1.888C19.434-29.168,14.637-29.2,13.356-29.2Zm0,0" transform="translate(-6.352 45.707)" fill="#fff" stroke="#fff" stroke-width="1.5"/>
          </g>
        </g>
      </g>
      <g id="Group_54" data-name="Group 54" transform="translate(184.933 175.207)">
        <g id="Group_53" data-name="Group 53" transform="translate(0)">
          <g id="Group_52" data-name="Group 52">
            <path id="Path_26" data-name="Path 26" d="M6.14-26.993V-41.708c4.607,7.069,17.275,12,17.275,21.783H25.3c-.608-.7-.544-4.894-.544-5.885V-39.789c0-1.025-.064-5.213.544-5.919h-2.43c.639.769.544,5.919.544,7.069v13.212c-2.016-4.191-6.046-7.485-9.565-10.46-2.591-2.175-7.71-6.077-7.71-9.821H4.254c.672.769.575,5.919.575,7.069v11.645c0,1.15.1,6.3-.575,7.069H6.717C6.045-20.691,6.14-25.843,6.14-26.993Zm0,0" transform="translate(-4.254 45.707)" fill="#fff" stroke="#fff" stroke-width="1.5"/>
          </g>
        </g>
      </g>
      <g id="Group_57" data-name="Group 57" transform="translate(47.863 142.104)">
        <g id="Group_56" data-name="Group 56" transform="translate(0)">
          <g id="Group_55" data-name="Group 55">
            <path id="Path_27" data-name="Path 27" d="M19.6-23.291c0-7.483-13.91-4.854-13.91-10.277,0-3.226,2.631-4.528,5.5-4.528,2.36,0,4.854.732,6.156,2.873l.758-1.355A9.937,9.937,0,0,0,11.2-39.125c-3.5,0-6.723,1.679-6.723,5.557,0,6.7,13.908,3.96,13.908,10.277,0,3.741-3.118,5.368-6.48,5.368-2.847,0-6.154-1.058-7.375-3.849l-.921,1.221C5.395-18,8.947-16.811,11.957-16.811,15.969-16.811,19.6-18.844,19.6-23.291Zm0,0" transform="translate(-3.605 39.125)" fill="#fff" stroke="#fff" stroke-width="1.5"/>
          </g>
        </g>
      </g>
      <g id="Group_60" data-name="Group 60" transform="translate(68.494 142.075)">
        <g id="Group_59" data-name="Group 59" transform="translate(0)">
          <g id="Group_58" data-name="Group 58">
            <path id="Path_28" data-name="Path 28" d="M22.1-19.382l-.405-1.573c-1.465,2.089-5.072,3.173-7.567,3.173-6.1,0-9.354-4.42-9.354-10.222s3.255-10.222,9.354-10.222c2.523,0,6.075,1.058,7.567,3.173l.405-1.573a14.008,14.008,0,0,0-7.972-2.549c-6.7,0-10.519,4.718-10.519,11.172S7.428-16.833,14.125-16.833A13.8,13.8,0,0,0,22.1-19.382Zm0,0" transform="translate(-3.605 39.176)" fill="#fff" stroke="#fff" stroke-width="1.5"/>
          </g>
        </g>
      </g>
      <g id="Group_63" data-name="Group 63" transform="translate(91.645 142.32)">
        <g id="Group_62" data-name="Group 62" transform="translate(0)">
          <g id="Group_61" data-name="Group 61">
            <path id="Path_29" data-name="Path 29" d="M5.205-22.879v-4.176c2.2,0,4.42.053,6.643,0l3.957,5.639c.787,1.113,2.36,3.118,2.441,4.528h2.6c-1.3-.921-3.931-4.881-4.826-6.209l-2.9-4.094A5.837,5.837,0,0,0,18.111-33.1c0-3.794-2.981-5.639-6.48-5.639H3.605c.568.6.487,5.044.487,5.991v9.872c0,.947.082,5.394-.487,5.991H5.692C5.124-17.485,5.205-21.932,5.205-22.879Zm0-14.805H11.63c2.928,0,5.18,1.463,5.18,4.581a4.827,4.827,0,0,1-5.18,5.017H5.205Zm0,0" transform="translate(-3.605 38.742)" fill="#fff" stroke="#fff" stroke-width="1.5"/>
          </g>
        </g>
      </g>
      <g id="Group_66" data-name="Group 66" transform="translate(113.523 141.804)">
        <g id="Group_65" data-name="Group 65" transform="translate(0)">
          <g id="Group_64" data-name="Group 64">
            <path id="Path_30" data-name="Path 30" d="M6.126-17.91c0-1.573,1.952-5.559,2.576-7.022H19.44c.652,1.463,2.6,5.449,2.6,7.022a2.52,2.52,0,0,1-.079.624h2.6c-1.058-.895-2.765-4.936-3.307-6.209l-7.185-16.16L6.7-23.007c-.516,1.192-2.089,4.881-3.091,5.72H6.181A4.964,4.964,0,0,1,6.126-17.91Zm7.946-19.36,4.934,11.335H9.136Zm0,0" transform="translate(-3.605 39.656)" fill="#fff" stroke="#fff" stroke-width="1.5"/>
          </g>
        </g>
      </g>
      <g id="Group_69" data-name="Group 69" transform="translate(139.114 142.32)">
        <g id="Group_68" data-name="Group 68" transform="translate(0)">
          <g id="Group_67" data-name="Group 67">
            <path id="Path_31" data-name="Path 31" d="M13.177-21.119V-37.792h3.931c.95,0,3.849.053,4.528.65l-.571-1.6H4.174l-.568,1.681c.895-.705,4.826-.732,6.02-.732h2.439v16.729c0,.705-.026,3.689-.487,4.176h2.087C13.2-17.375,13.177-20.385,13.177-21.119Zm0,0" transform="translate(-3.605 38.742)" fill="#fff" stroke="#fff" stroke-width="1.5"/>
          </g>
        </g>
      </g>
      <g id="Group_72" data-name="Group 72" transform="translate(161.804 142.075)">
        <g id="Group_71" data-name="Group 71" transform="translate(0)">
          <g id="Group_70" data-name="Group 70">
            <path id="Path_32" data-name="Path 32" d="M22.1-19.382l-.405-1.573c-1.465,2.089-5.072,3.173-7.567,3.173-6.1,0-9.354-4.42-9.354-10.222s3.255-10.222,9.354-10.222c2.523,0,6.075,1.058,7.567,3.173l.405-1.573a14.008,14.008,0,0,0-7.972-2.549c-6.7,0-10.519,4.718-10.519,11.172S7.428-16.833,14.125-16.833A13.8,13.8,0,0,0,22.1-19.382Zm0,0" transform="translate(-3.605 39.176)" fill="#fff" stroke="#fff" stroke-width="1.5"/>
          </g>
        </g>
      </g>
      <g id="Group_75" data-name="Group 75" transform="translate(184.956 142.32)">
        <g id="Group_74" data-name="Group 74" transform="translate(0)">
          <g id="Group_73" data-name="Group 73">
            <path id="Path_33" data-name="Path 33" d="M5.205-20.956v-6.291H18.519v6.32c0,.758-.029,3.523-.489,4.039h2.089c-.434-.516-.489-3.336-.489-4.068V-34.675c0-.76.055-3.552.489-4.068H18.029c.461.516.489,3.307.489,4.013v6.372H5.205v-6.317c0-.76.026-3.552.487-4.068H3.605c.434.516.487,3.281.487,4.013v13.8c0,.758-.053,3.523-.487,4.039H5.692C5.232-17.4,5.205-20.224,5.205-20.956Zm0,0" transform="translate(-3.605 38.742)" fill="#fff" stroke="#fff" stroke-width="1.5"/>
          </g>
        </g>
      </g>
    </g>
    <g id="Group_94" data-name="Group 94">
      <g id="Group_78" data-name="Group 78" transform="translate(65.313 24.892)">
        <g id="Group_77" data-name="Group 77" transform="translate(0 0)">
          <g id="Group_76" data-name="Group 76">
            <path id="Path_34" data-name="Path 34" d="M6.974-37.122l-1.344-.91C5.912-35.5,3.922-32.3,2.051-30.65c-4.577,4.035-9.94,2.869-13.776-1.483s-4.319-9.821.258-13.855c1.893-1.666,5.257-3.221,7.774-2.622l-.734-1.448A14.008,14.008,0,0,0-12.093-46.7c-5.026,4.429-4.775,10.5-.507,15.336S-2.347-25.51,2.679-29.939A13.8,13.8,0,0,0,6.974-37.122Zm0,0" transform="translate(15.832 50.059)" fill="#fff" stroke="#fff" stroke-width="1"/>
          </g>
        </g>
      </g>
      <g id="Group_81" data-name="Group 81" transform="translate(84.567 11.229)">
        <g id="Group_80" data-name="Group 80">
          <g id="Group_79" data-name="Group 79">
            <path id="Path_35" data-name="Path 35" d="M-4.6-29.678c-.683-1.655-.381-2.774,1.349-3.488L4.1-36.192c.877-.361,1.974-.9,2.23-1.917l2.076,5.039c.353.853,2.142,4.984,1.831,5.727l1.93-.8c-.718-.32-2.382-4.5-2.732-5.354L5.675-42.619c-.353-.851-2.118-4.993-1.833-5.725l-1.93.8c.851.353,3.014,6.031,3.426,7.033.8,1.93.174,2.627-1.633,3.369l-7.344,3.028a2.944,2.944,0,0,0-1.979,1.959l-2.045-4.964c-.353-.853-2.142-4.982-1.831-5.727l-1.932.8c.745.311,2.384,4.5,2.734,5.354l3.759,9.127c.353.851,2.142,4.982,1.831,5.725l1.93-.793C-1.995-23.008-4.183-28.676-4.6-29.678Zm0,0" transform="translate(11.426 48.344)" fill="#fff" stroke="#fff" stroke-width="1"/>
          </g>
        </g>
      </g>
      <g id="Group_84" data-name="Group 84" transform="translate(111.604 7.496)">
        <g id="Group_83" data-name="Group 83" transform="translate(0)">
          <g id="Group_82" data-name="Group 82">
            <path id="Path_36" data-name="Path 36" d="M6.1-18.488c-.066-1.571,1.716-5.636,2.278-7.126l10.729-.45c.712,1.437,2.829,5.337,2.893,6.908a2.339,2.339,0,0,1-.055.628l2.6-.11c-1.1-.851-2.97-4.815-3.565-6.066L13.123-40.547,6.451-23.607c-.465,1.214-1.882,4.964-2.849,5.846l2.574-.108A4.9,4.9,0,0,1,6.1-18.488Zm7.126-19.677,5.405,11.119-9.861.412Zm0,0" transform="translate(-3.602 40.547)" fill="#fff" stroke="#fff" stroke-width="1"/>
          </g>
        </g>
      </g>
      <g id="Group_87" data-name="Group 87" transform="translate(142.73 9.42)">
        <g id="Group_86" data-name="Group 86" transform="translate(0 0)">
          <g id="Group_85" data-name="Group 85">
            <path id="Path_37" data-name="Path 37" d="M19.671-19.97l8.186-7.769c.694-.659,2.629-2.6,3.567-2.871l-2.3-.736a2.345,2.345,0,0,1-.079.43c-.282.877-1.869,2.276-2.5,2.9l-6.972,6.736L17.487-32.345a4.326,4.326,0,0,1,.046-2.719l-2.272-.729a8.633,8.633,0,0,1,.917,2.829L18.6-20.285l-.646,2.014c-.282.879-1.586,5.216-2.3,5.557l1.99.637C17.249-12.859,19.38-19.066,19.671-19.97Zm0,0" transform="translate(-15.262 35.793)" fill="#fff" stroke="#fff" stroke-width="1"/>
          </g>
        </g>
      </g>
      <g id="Group_90" data-name="Group 90" transform="translate(165.777 19.122)">
        <g id="Group_89" data-name="Group 89" transform="translate(0)">
          <g id="Group_88" data-name="Group 88">
            <path id="Path_38" data-name="Path 38" d="M23.188-29.923a1.033,1.033,0,0,0-.331-1.479,1.029,1.029,0,0,0-1.408.37,1,1,0,0,0,.509,1.492l-1.318,1.018.375.22A7.639,7.639,0,0,0,23.188-29.923Zm0,0" transform="translate(-20.641 31.542)" fill="#fff" stroke="#fff" stroke-width="1"/>
          </g>
        </g>
      </g>
      <g id="Group_93" data-name="Group 93" transform="translate(163.997 27.644)">
        <g id="Group_92" data-name="Group 92" transform="translate(0 0)">
          <g id="Group_91" data-name="Group 91">
            <path id="Path_39" data-name="Path 39" d="M20.458-1.723c5.048-5.526-7-12.965-3.338-16.969,2.177-2.382,5-1.569,7.119.368,1.741,1.591,3.089,3.814,2.6,6.273l1.476-.489a9.946,9.946,0,0,0-3.387-6.544c-2.582-2.36-6.1-3.294-8.712-.432-4.517,4.945,7.6,12.3,3.338,16.969C17.034.216,13.636-.686,11.153-2.955,9.051-4.874,7.321-7.887,8.3-10.771l-1.5.278C6.4-7.4,8.22-4.127,10.443-2.1,13.4.61,17.459,1.56,20.458-1.723Zm0,0" transform="translate(-6.746 21.292)" fill="#fff" stroke="#fff" stroke-width="1"/>
          </g>
        </g>
      </g>
    </g>
  </g>
</svg>
