<svg xmlns="http://www.w3.org/2000/svg" xmlns:xlink="http://www.w3.org/1999/xlink" width="388.052" height="459.646" viewBox="0 0 388.052 459.646">
  <defs>
    <clipPath id="clip-path">
      <path id="Path_12" data-name="Path 12" d="M137,121H261.082V264.663H137Zm0,0" transform="translate(-137 -121)"/>
    </clipPath>
    <clipPath id="clip-path-2">
      <path id="Path_14" data-name="Path 14" d="M109,62.926H318.082V284.073H109Zm0,0" transform="translate(-109 -62.926)"/>
    </clipPath>
    <clipPath id="clip-path-3">
      <path id="Path_16" data-name="Path 16" d="M159,192h66.711v48.934H159Zm0,0" transform="translate(-159 -192)"/>
    </clipPath>
    <clipPath id="clip-path-4">
      <path id="Path_19" data-name="Path 19" d="M143,186h52.035v56.939H143Zm0,0" transform="translate(-143 -186)"/>
    </clipPath>
  </defs>
  <g id="LOGO" transform="translate(-41.599 -6.265)">
    <g id="Group_30" data-name="Group 30" transform="translate(168.298 158.935)" clip-path="url(#clip-path)">
      <path id="Path_11" data-name="Path 11" d="M259.477,262.011l-62.1-70.755-1.032.912,1.313.417c.026-.078.068-.2.115-.37l-1.334-.36,1.324.391a1.861,1.861,0,0,0,.068-.474,2.174,2.174,0,0,0-.083-.584,5.343,5.343,0,0,0-.36-.922c-.281-.594-.7-1.313-1.23-2.189-1.866-3.033-5.248-7.865-9.407-13.629s-9.079-12.43-13.983-19.07c-5.895-7.984-11.711-15.51-16.355-21.275-2.319-2.882-4.347-5.327-5.947-7.177-.8-.928-1.491-1.7-2.074-2.319a14.886,14.886,0,0,0-1.418-1.376,9.747,9.747,0,0,0-1.782-1.147,5.067,5.067,0,0,0-2.189-.542,3.719,3.719,0,0,0-2.163.678,4.791,4.791,0,0,0-1.3,1.381,10.483,10.483,0,0,0-1.282,3.289,29.184,29.184,0,0,0-.641,5.076c-.026.526-.042,1.063-.042,1.61,0,5.186,1.266,11.252,4.274,18.356s7.755,15.245,14.77,24.61c5.149,6.88,9.027,12.321,12.9,16.4a31.539,31.539,0,0,0,5.978,5.05,21.065,21.065,0,0,0,6.88,2.82,10.427,10.427,0,0,0,2.215.235,12.875,12.875,0,0,0,3.633-.558l-.391-1.329-1.126.8,22.708,31.907,1.121-.8-1.256.573.005.005a1.206,1.206,0,0,0,.109.2l21.28,31.865a1.384,1.384,0,1,0,2.3-1.543L211.69,230.3l-1.147.771,1.256-.573V230.5a1.723,1.723,0,0,0-.136-.235l-22.708-31.9a1.368,1.368,0,0,0-1.517-.521,9.992,9.992,0,0,1-2.846.443,7.843,7.843,0,0,1-1.631-.167,18.366,18.366,0,0,1-5.994-2.465,36.172,36.172,0,0,1-8.25-7.792c-2.877-3.461-6.014-7.8-9.887-12.972-6.916-9.23-11.544-17.194-14.442-24.037s-4.055-12.54-4.055-17.272c0-.5.01-.985.036-1.465.172-3.424.7-5.551,1.277-6.65a2.607,2.607,0,0,1,.761-.975,1.009,1.009,0,0,1,.594-.182,2.271,2.271,0,0,1,1,.276,6.557,6.557,0,0,1,1.256.813,13.533,13.533,0,0,1,1.136,1.11c.938,1,2.293,2.554,3.935,4.519,4.936,5.9,12.524,15.562,20.227,26,6.166,8.355,12.362,16.756,17.006,23.3,2.319,3.273,4.253,6.077,5.592,8.167.672,1.037,1.188,1.9,1.522,2.533a6.606,6.606,0,0,1,.354.724c.031.083.047.141.057.156v.005l.6-.13h-.615a1.122,1.122,0,0,0,.016.13l.6-.13h.459l-1.027-.3a1.286,1.286,0,0,0-.047.3h1.074l-1.027-.3-.005.026c-.016.063-.042.135-.078.25a1.381,1.381,0,0,0,.276,1.334l62.1,70.755a1.381,1.381,0,0,0,2.074-1.824" transform="translate(-136.807 -120.819)" fill="#fff" stroke="#fff" stroke-width="0.5"/>
    </g>
    <g id="Group_31" data-name="Group 31" transform="translate(130.94 81.451)" clip-path="url(#clip-path-2)">
      <path id="Path_13" data-name="Path 13" d="M267.96,283.888a28.938,28.938,0,0,0,3.779-.261,11.249,11.249,0,0,0,2.543-.657,6.15,6.15,0,0,0,3.007-2.429,8.07,8.07,0,0,0,1.068-4.352v-.083l-4.592-78.12-1.376.078.1,1.381a49.033,49.033,0,1,0-13.577-96.934l.276,1.355,1.36-.235a48.923,48.923,0,0,0-95.845-2.945l1.339.318.229-1.36a49.028,49.028,0,1,0-15.192,96.866l.193-1.366-1.376-.109-6.353,81.038v.115a8.11,8.11,0,0,0,1.063,4.347,5.9,5.9,0,0,0,2.126,2.012,10.823,10.823,0,0,0,4.253,1.183,48.449,48.449,0,0,0,4.936.167h.651a1.381,1.381,0,0,0,0-2.762h-.651c-1.527,0-2.95-.01-4.2-.109a12.513,12.513,0,0,1-2.444-.4,5.09,5.09,0,0,1-1.308-.552,3.051,3.051,0,0,1-1.2-1.313,5.9,5.9,0,0,1-.474-2.569h-1.381l1.376.1,6.353-81.038a1.381,1.381,0,0,0-1.178-1.475,46.27,46.27,0,1,1,14.343-91.415,1.37,1.37,0,0,0,1.569-1.042,46.169,46.169,0,0,1,90.445,2.778,1.386,1.386,0,0,0,1.631,1.121,46.265,46.265,0,1,1,12.816,91.467,1.384,1.384,0,0,0-1.272,1.459l4.6,78.12,1.376-.078H275.6a5.7,5.7,0,0,1-.526,2.668,2.953,2.953,0,0,1-.912,1.058,5.853,5.853,0,0,1-2.465.917,23.962,23.962,0,0,1-3.779.292,1.381,1.381,0,1,0,.042,2.762" transform="translate(-108.943 -62.918)" fill="#fff" stroke="#fff" stroke-width="1"/>
    </g>
    <g id="Group_32" data-name="Group 32" transform="translate(197.651 253.665)" clip-path="url(#clip-path-3)">
      <path id="Path_15" data-name="Path 15" d="M192.924,193.37l-33.465,44.92a1.381,1.381,0,0,0,1.11,2.2h63.589a1.381,1.381,0,1,0,0-2.762H163.316l31.818-42.711a1.386,1.386,0,0,0-.281-1.934,1.37,1.37,0,0,0-1.928.281" transform="translate(-158.938 -191.728)" fill="#fff" stroke="#fff" stroke-width="0.5"/>
    </g>
    <path id="Path_17" data-name="Path 17" d="M186.145,195.8l13.014-14.765-.031,1.793a19.253,19.253,0,0,1-4.143-8.584,13.634,13.634,0,0,1,0-4.909,13.882,13.882,0,0,1,1.736-4.571,17.636,17.636,0,0,1,1.386-1.975c.261-.307.511-.61.792-.9.245-.271.521-.542.787-.813,1.068-1.11,2.163-2.111,3.237-3.169l3.3-3.054c1.1-1.016,2.231-2,3.346-2.992s2.225-2,3.367-2.965l3.4-2.919c1.136-.969,2.267-1.949,3.424-2.9l3.445-2.861,3.445-2.866,3.482-2.814,6.973-5.624.005-.01a.685.685,0,0,1,.881.026l2.1,1.907.016.016a.648.648,0,0,1,.036.912l-.021.021c-2.794,2.778-5.551,5.592-8.308,8.407s-5.525,5.618-8.25,8.459l-8.219,8.5-4.107,4.248-2.053,2.126-.13.13.031-.026-.021.016-.026.042-.057.073a1.665,1.665,0,0,0-.094.177,1.122,1.122,0,0,0-.094.453,1.144,1.144,0,0,0,.354.808,1.075,1.075,0,0,0,.886.287,1.089,1.089,0,0,0,.438-.146,1.784,1.784,0,0,0,.417-.38l2.053-2.121,4.1-4.253,8.214-8.5,8.229-8.485c2.752-2.82,5.5-5.644,8.271-8.443l.047-.042a.7.7,0,0,1,.969.01L244.8,135.1a.61.61,0,0,1,.052.86L229.184,153.62l-7.833,8.834-3.919,4.414-1.96,2.21-.12.141-.1.12a1.844,1.844,0,0,0-.094.182,1.015,1.015,0,0,0-.094.464,1.141,1.141,0,0,0,.375.85,1.169,1.169,0,0,0,.886.281,1.114,1.114,0,0,0,.641-.292l.089-.089.12-.141,1.96-2.2,3.919-4.414,7.833-8.834,7.818-8.85,7.792-8.87a.7.7,0,0,1,.99-.068l.01.005,2.163,1.835a.764.764,0,0,1,.109,1.042l-.021.031-14.843,18.4-7.416,9.2-3.706,4.6-1.855,2.3-.229.287c-.01.026-.042.073-.073.141a.946.946,0,0,0,.24,1.084.927.927,0,0,0,.73.224,1,1,0,0,0,.365-.12l.156-.12.047-.042.115-.146,1.855-2.3,3.711-4.6,7.416-9.209,14.833-18.408a.874.874,0,0,1,1.225-.125l.031.026,2.022,1.991.057.052a.7.7,0,0,1,.078.886l-4.774,7.588-2.387,3.789-4.878,7.526c-.8,1.256-1.642,2.5-2.476,3.742l-2.5,3.721c-.823,1.251-1.694,2.47-2.543,3.7s-1.7,2.465-2.575,3.68l-2.642,3.643c-.917,1.194-1.793,2.408-2.757,3.586-.24.3-.469.589-.724.891-.3.36-.5.568-.787.87a16.028,16.028,0,0,1-1.809,1.626,13.724,13.724,0,0,1-4.336,2.262,13.388,13.388,0,0,1-4.863.573,19.149,19.149,0,0,1-9-3.122l1.855-.334L194.4,205.472a1.378,1.378,0,0,1-2.21-1.647l12.915-17.34a1.381,1.381,0,0,1,1.829-.349l.026.016A16.476,16.476,0,0,0,214.633,189a11.061,11.061,0,0,0,3.971-.386,11.287,11.287,0,0,0,3.591-1.8,14.653,14.653,0,0,0,1.543-1.329c.229-.235.547-.558.724-.777.235-.266.469-.553.7-.834.943-1.115,1.84-2.309,2.762-3.466l2.679-3.56c.891-1.188,1.751-2.408,2.627-3.607s1.751-2.408,2.6-3.638l2.554-3.664c.855-1.225,1.715-2.444,2.538-3.685l2.5-3.706,2.5-3.711,7.349-11.226.13.933-2.21-1.777,1.251-.1-14.869,18.377-7.437,9.183-3.721,4.6-1.855,2.3-.115.141c-.109.12-.141.146-.214.219a2.342,2.342,0,0,1-.433.323,2.571,2.571,0,0,1-3.883-2.21,2.522,2.522,0,0,1,.214-1.053,2.945,2.945,0,0,1,.3-.506l.234-.287,1.855-2.3,3.721-4.592,7.432-9.188,14.869-18.382.089,1.074-2.069-1.944,1-.057-7.885,8.787-7.854,8.818-7.839,8.829-3.919,4.42-1.96,2.2-.12.141-.177.172a2.461,2.461,0,0,1-.4.3,2.327,2.327,0,0,1-.938.313,2.374,2.374,0,0,1-2.642-2.351,2.415,2.415,0,0,1,.2-.969,2.617,2.617,0,0,1,.266-.453l.135-.172.12-.135,1.96-2.21,11.758-13.243,15.677-17.663.052.865-2.2-1.793,1.016-.031c-2.726,2.846-5.478,5.665-8.224,8.485l-8.261,8.448-8.287,8.433-6.207,6.322a3.19,3.19,0,0,1-.693.589,2.425,2.425,0,0,1-2.8-.261,2.375,2.375,0,0,1-.823-1.809,2.444,2.444,0,0,1,.2-.98,2.274,2.274,0,0,1,.271-.464l.156-.188.13-.13,2.069-2.111,4.138-4.216,8.281-8.438c2.762-2.8,5.493-5.644,8.235-8.474s5.483-5.66,8.188-8.526l.031.949-2.137-1.866.886.021-6.853,5.754L227.7,138.6l-6.765,5.848c-1.136.969-2.241,1.965-3.351,2.955l-3.336,2.976c-1.115.985-2.2,2.007-3.294,3.012s-2.2,2.007-3.268,3.038l-3.211,3.085c-1.032,1.053-2.116,2.1-3.1,3.153-.25.266-.5.526-.751.808-.235.25-.453.526-.672.792a14.237,14.237,0,0,0-1.147,1.715,11.064,11.064,0,0,0-1.282,7.786,16.6,16.6,0,0,0,3.732,7.3l.016.016a1.392,1.392,0,0,1-.047,1.782l-13.009,14.765a1.381,1.381,0,0,1-2.069-1.829" transform="translate(47.608 40.526)" fill="#fff" stroke="#fff" stroke-width="0.5"/>
    <g id="Group_33" data-name="Group 33" transform="translate(176.304 245.659)" clip-path="url(#clip-path-4)">
      <path id="Path_18" data-name="Path 18" d="M146.081,242.2l47.229-53.609a1.381,1.381,0,0,0-2.069-1.829l-47.229,53.614a1.379,1.379,0,1,0,2.069,1.824" transform="translate(-142.777 -185.9)" fill="#fff" stroke="#fff" stroke-width="0.5"/>
    </g>
    <g id="Group_95" data-name="Group 95" transform="translate(43.354 325.171)">
      <g id="Group_36" data-name="Group 36" transform="translate(0 79.007)">
        <g id="Group_35" data-name="Group 35">
          <g id="Group_34" data-name="Group 34">
            <path id="Path_20" data-name="Path 20" d="M8.775-1.443V-28.988c0-2.648-.229-15.052,1.36-16.719H4.309C5.9-44.039,5.674-31.635,5.674-28.988V-1.443c0,2.648.224,15.057-1.365,16.719h5.827C8.546,13.614,8.775,1.2,8.775-1.443ZM86.7,6.8l-1.736-4.31C78,9.528,70.061,12.4,61.888,12.4c-17.553,0-35.941-13.467-46.76-27.763C21.94-22.478,28.6-29.514,35.48-36.628c1.892-1.965,7.719-8.172,10.444-9.079H38.738C36.314-41.241,15.66-20.055,11.12-15.213,25.192,2.34,42.9,15.276,61.508,15.276,69.831,15.276,78.306,12.7,86.7,6.8Zm0,0" transform="translate(-4.309 45.707)" fill="#fff" stroke="#fff" stroke-width="1.5"/>
          </g>
        </g>
      </g>
      <g id="Group_39" data-name="Group 39" transform="translate(95.333 79.007)">
        <g id="Group_38" data-name="Group 38" transform="translate(0)">
          <g id="Group_37" data-name="Group 37">
            <path id="Path_21" data-name="Path 21" d="M8.715-1.443V-28.988c0-2.648-.224-15.052,1.365-16.719H4.254c1.59,1.668,1.36,14.072,1.36,16.719V-1.443c0,2.648.229,15.057-1.36,16.719h5.827C8.491,13.614,8.715,1.2,8.715-1.443Zm0,0" transform="translate(-4.254 45.707)" fill="#fff" stroke="#fff" stroke-width="1.5"/>
          </g>
        </g>
      </g>
      <g id="Group_42" data-name="Group 42" transform="translate(114.098 79.007)">
        <g id="Group_41" data-name="Group 41" transform="translate(0)">
          <g id="Group_40" data-name="Group 40">
            <path id="Path_22" data-name="Path 22" d="M30.959,3.471V-43.059H41.93c2.648,0,10.747.151,12.639,1.819l-1.59-4.467H5.844l-1.59,4.691c2.5-1.965,13.467-2.043,16.8-2.043h6.807V3.623c0,1.97-.073,10.293-1.36,11.654h5.827C31.037,13.916,30.959,5.514,30.959,3.471Zm0,0" transform="translate(-4.254 45.707)" fill="#fff" stroke="#fff" stroke-width="1.5"/>
          </g>
        </g>
      </g>
      <g id="Group_45" data-name="Group 45" transform="translate(176.289 78.554)">
        <g id="Group_44" data-name="Group 44" transform="translate(0)">
          <g id="Group_43" data-name="Group 43">
            <path id="Path_23" data-name="Path 23" d="M40.4-8.142l-.834-4.086c-2.648,3.935-9.684,6.358-14.452,6.358-11.044,0-18.46-7.495-18.46-18.841,0-11.273,7.265-18.762,18.46-18.762,4.7,0,11.732,2.345,14.452,6.353l.834-4.086a26.722,26.722,0,0,0-15.286-4.842C12.408-46.047,3.4-37.119,3.4-24.71,3.4-12.228,12.408-3.3,25.115-3.3A27.315,27.315,0,0,0,40.4-8.142Zm0,0" transform="translate(-3.402 46.047)" fill="#fff" stroke="#fff" stroke-width="1.5"/>
          </g>
        </g>
      </g>
      <g id="Group_48" data-name="Group 48" transform="translate(225.091 79.007)">
        <g id="Group_47" data-name="Group 47" transform="translate(0)">
          <g id="Group_46" data-name="Group 46">
            <path id="Path_24" data-name="Path 24" d="M8.715-6.514c0-4.993,1.97-7.568,7.187-7.568H38.073c2.648,0,6.051-.224,7.792-2.569V-1.443c0,2.569.229,15.13-1.36,16.719h5.827c-1.517-1.59-1.365-14.15-1.365-16.719V-28.988c0-2.569-.151-15.13,1.365-16.719H44.5c1.814,1.819,1.36,18.762,1.36,21.791,0,5.827-2.345,6.963-7.792,6.963H15.9c-2.721,0-5.6.6-7.187,2.95V-28.988c0-2.569-.224-15.13,1.365-16.719H4.254c1.59,1.59,1.36,14.15,1.36,16.719V-1.443c0,2.569.229,15.13-1.36,16.719h5.827C8.34,13.462,8.715-3.486,8.715-6.514Zm0,0" transform="translate(-4.254 45.707)" fill="#fff" stroke="#fff" stroke-width="1.5"/>
          </g>
        </g>
      </g>
      <g id="Group_51" data-name="Group 51" transform="translate(286.904 79.007)">
        <g id="Group_50" data-name="Group 50" transform="translate(0)">
          <g id="Group_49" data-name="Group 49">
            <path id="Path_25" data-name="Path 25" d="M22.92-6.665H10.359V-23.687H20.726c1.819,0,10.288-.151,11.5.907V-27.1c-1.214,1.063-9.684.912-11.5.912H10.359V-42.83H21.784c3.106,0,14.452-.078,16.5,1.663-.073-.3-1.136-4.461-1.058-4.539H6.352c1.058,1.136.907,9.611.907,11.5v18.914c0,1.814.151,10.288-.907,11.5H38.279l1.058-4.467C37.294-6.587,25.948-6.665,22.92-6.665Zm0,0" transform="translate(-6.352 45.707)" fill="#fff" stroke="#fff" stroke-width="1.5"/>
          </g>
        </g>
      </g>
      <g id="Group_54" data-name="Group 54" transform="translate(334.873 79.007)">
        <g id="Group_53" data-name="Group 53" transform="translate(0)">
          <g id="Group_52" data-name="Group 52">
            <path id="Path_26" data-name="Path 26" d="M8.715-1.443v-34.8c10.9,16.719,40.86,28.373,40.86,51.524h4.461C52.6,13.614,52.75,3.7,52.75,1.355V-31.708c0-2.423-.151-12.331,1.287-14H48.288c1.511,1.819,1.287,14,1.287,16.719V2.262c-4.769-9.913-14.3-17.7-22.624-24.74C20.822-27.622,8.715-36.852,8.715-45.707H4.254c1.59,1.819,1.36,14,1.36,16.719V-1.443c0,2.721.229,14.906-1.36,16.719h5.827C8.491,13.462,8.715,1.277,8.715-1.443Zm0,0" transform="translate(-4.254 45.707)" fill="#fff" stroke="#fff" stroke-width="1.5"/>
          </g>
        </g>
      </g>
      <g id="Group_57" data-name="Group 57" transform="translate(10.667 0.709)">
        <g id="Group_56" data-name="Group 56" transform="translate(0)">
          <g id="Group_55" data-name="Group 55">
            <path id="Path_27" data-name="Path 27" d="M41.443-1.673c0-17.7-32.9-11.482-32.9-24.308,0-7.63,6.223-10.71,13.019-10.71,5.582,0,11.482,1.73,14.562,6.8L37.915-33.1c-3.977-4.169-10.773-6.025-16.355-6.025-8.271,0-15.9,3.971-15.9,13.144,0,15.839,32.9,9.366,32.9,24.308,0,8.85-7.375,12.7-15.328,12.7-6.734,0-14.557-2.5-17.444-9.105L3.605,4.805c4.232,6.025,12.633,8.85,19.753,8.85C32.849,13.655,41.443,8.844,41.443-1.673Zm0,0" transform="translate(-3.605 39.125)" fill="#fff" stroke="#fff" stroke-width="1.5"/>
          </g>
        </g>
      </g>
      <g id="Group_60" data-name="Group 60" transform="translate(59.463 0.641)">
        <g id="Group_59" data-name="Group 59" transform="translate(0)">
          <g id="Group_58" data-name="Group 58">
            <path id="Path_28" data-name="Path 28" d="M47.343,7.642l-.959-3.721c-3.466,4.941-12,7.5-17.9,7.5C14.06,11.426,6.363.971,6.363-12.752S14.06-36.93,28.487-36.93c5.968,0,14.369,2.5,17.9,7.5l.959-3.721a33.133,33.133,0,0,0-18.856-6.03c-15.839,0-24.881,11.158-24.881,26.424s9.042,26.424,24.881,26.424A32.636,32.636,0,0,0,47.343,7.642Zm0,0" transform="translate(-3.605 39.176)" fill="#fff" stroke="#fff" stroke-width="1.5"/>
          </g>
        </g>
      </g>
      <g id="Group_63" data-name="Group 63" transform="translate(114.222 1.22)">
        <g id="Group_62" data-name="Group 62" transform="translate(0)">
          <g id="Group_61" data-name="Group 61">
            <path id="Path_29" data-name="Path 29" d="M7.389-1.222V-11.1c5.2,0,10.455.125,15.714,0l9.36,13.337c1.861,2.632,5.582,7.375,5.775,10.71h6.155C41.313,10.77,35.1,1.4,32.979-1.738l-6.864-9.684c7.057-1.345,11.8-6.671,11.8-13.983,0-8.975-7.052-13.337-15.328-13.337H3.605C4.95-37.33,4.757-26.812,4.757-24.571V-1.222c0,2.241.193,12.758-1.152,14.171H8.541C7.2,11.536,7.389,1.019,7.389-1.222Zm0-35.018h15.2c6.926,0,12.253,3.461,12.253,10.835,0,7.312-5.134,11.867-12.253,11.867H7.389Zm0,0" transform="translate(-3.605 38.742)" fill="#fff" stroke="#fff" stroke-width="1.5"/>
          </g>
        </g>
      </g>
      <g id="Group_66" data-name="Group 66" transform="translate(165.969)">
        <g id="Group_65" data-name="Group 65" transform="translate(0)">
          <g id="Group_64" data-name="Group 64">
            <path id="Path_30" data-name="Path 30" d="M9.568,11.779c0-3.721,4.618-13.149,6.093-16.61h25.4C42.6-1.37,47.213,8.058,47.213,11.779a5.962,5.962,0,0,1-.188,1.475H53.18c-2.5-2.116-6.541-11.674-7.823-14.687l-17-38.223L10.918-.276C9.7,2.544,5.977,11.268,3.605,13.254H9.7A11.743,11.743,0,0,1,9.568,11.779ZM28.361-34.012,40.031-7.2H16.687Zm0,0" transform="translate(-3.605 39.656)" fill="#fff" stroke="#fff" stroke-width="1.5"/>
          </g>
        </g>
      </g>
      <g id="Group_69" data-name="Group 69" transform="translate(226.499 1.22)">
        <g id="Group_68" data-name="Group 68" transform="translate(0)">
          <g id="Group_67" data-name="Group 67">
            <path id="Path_31" data-name="Path 31" d="M26.246,2.942V-36.5h9.3c2.246,0,9.105.125,10.71,1.537L44.9-38.742H4.95L3.605-34.766c2.116-1.668,11.414-1.73,14.239-1.73h5.769V3.072c0,1.668-.063,8.725-1.152,9.876H27.4C26.308,11.8,26.246,4.677,26.246,2.942Zm0,0" transform="translate(-3.605 38.742)" fill="#fff" stroke="#fff" stroke-width="1.5"/>
          </g>
        </g>
      </g>
      <g id="Group_72" data-name="Group 72" transform="translate(280.167 0.641)">
        <g id="Group_71" data-name="Group 71" transform="translate(0)">
          <g id="Group_70" data-name="Group 70">
            <path id="Path_32" data-name="Path 32" d="M47.343,7.642l-.959-3.721c-3.466,4.941-12,7.5-17.9,7.5C14.06,11.426,6.363.971,6.363-12.752S14.06-36.93,28.487-36.93c5.968,0,14.369,2.5,17.9,7.5l.959-3.721a33.133,33.133,0,0,0-18.856-6.03c-15.839,0-24.881,11.158-24.881,26.424s9.042,26.424,24.881,26.424A32.636,32.636,0,0,0,47.343,7.642Zm0,0" transform="translate(-3.605 39.176)" fill="#fff" stroke="#fff" stroke-width="1.5"/>
          </g>
        </g>
      </g>
      <g id="Group_75" data-name="Group 75" transform="translate(334.928 1.22)">
        <g id="Group_74" data-name="Group 74" transform="translate(0)">
          <g id="Group_73" data-name="Group 73">
            <path id="Path_33" data-name="Path 33" d="M7.389,3.327v-14.88h31.49V3.4c0,1.793-.068,8.334-1.157,9.553h4.941c-1.027-1.22-1.157-7.891-1.157-9.621V-29.121c0-1.8.13-8.4,1.157-9.621H37.722c1.089,1.22,1.157,7.823,1.157,9.491v15.073H7.389V-29.121c0-1.8.063-8.4,1.152-9.621H3.605c1.027,1.22,1.152,7.76,1.152,9.491V3.4c0,1.793-.125,8.334-1.152,9.553H8.541C7.452,11.729,7.389,5.058,7.389,3.327Zm0,0" transform="translate(-3.605 38.742)" fill="#fff" stroke="#fff" stroke-width="1.5"/>
          </g>
        </g>
      </g>
    </g>
    <g id="Group_94" data-name="Group 94" transform="translate(95.292 7.496)">
      <g id="Group_78" data-name="Group 78" transform="translate(0 41.145)">
        <g id="Group_77" data-name="Group 77" transform="translate(0 0)">
          <g id="Group_76" data-name="Group 76">
            <path id="Path_34" data-name="Path 34" d="M38.11-19.46l-3.179-2.152c.667,5.994-4.039,13.561-8.464,17.46C15.642,5.39,2.957,2.633-6.117-7.661s-10.215-23.229.61-32.772c4.477-3.94,12.435-7.62,18.387-6.2l-1.736-3.424A33.132,33.132,0,0,0-6.988-42.116C-18.876-31.64-18.282-17.292-8.186-5.842S16.064,8.006,27.952-2.47A32.628,32.628,0,0,0,38.11-19.46Zm0,0" transform="translate(15.832 50.059)" fill="#fff" stroke="#fff" stroke-width="1"/>
          </g>
        </g>
      </g>
      <g id="Group_81" data-name="Group 81" transform="translate(45.543 8.829)">
        <g id="Group_80" data-name="Group 80">
          <g id="Group_79" data-name="Group 79">
            <path id="Path_35" data-name="Path 35" d="M4.731-4.195c-1.616-3.914-.9-6.562,3.19-8.25L25.3-19.6c2.074-.855,4.67-2.132,5.274-4.534l4.91,11.919C36.314-10.2,40.546-.427,39.811,1.33L44.377-.552c-1.7-.756-5.634-10.648-6.463-12.665L29.023-34.8c-.834-2.012-5.009-11.81-4.336-13.54l-4.566,1.881c2.012.834,7.13,14.265,8.1,16.636,1.881,4.566.412,6.212-3.862,7.969L6.993-14.7c-2.137.881-4.2,2.283-4.68,4.633L-2.524-21.805c-.834-2.017-5.066-11.784-4.331-13.545l-4.571,1.881c1.762.735,5.639,10.648,6.468,12.665L3.933.783C4.767,2.794,9,12.566,8.264,14.323l4.566-1.876C10.881,11.581,5.705-1.823,4.731-4.195Zm0,0" transform="translate(11.426 48.344)" fill="#fff" stroke="#fff" stroke-width="1"/>
          </g>
        </g>
      </g>
      <g id="Group_84" data-name="Group 84" transform="translate(109.491)">
        <g id="Group_83" data-name="Group 83" transform="translate(0)">
          <g id="Group_82" data-name="Group 82">
            <path id="Path_36" data-name="Path 36" d="M9.5,11.628C9.345,7.912,13.561-1.7,14.89-5.227L40.267-6.29c1.683,3.4,6.692,12.623,6.843,16.339a5.534,5.534,0,0,1-.13,1.485l6.155-.261C50.544,9.262,46.109-.114,44.7-3.074L26.122-40.547,10.34-.479C9.241,2.393,5.89,11.264,3.6,13.348l6.087-.255A11.6,11.6,0,0,1,9.5,11.628ZM26.356-34.913l12.785,26.3L15.818-7.64Zm0,0" transform="translate(-3.602 40.547)" fill="#fff" stroke="#fff" stroke-width="1"/>
          </g>
        </g>
      </g>
      <g id="Group_87" data-name="Group 87" transform="translate(183.113 4.551)">
        <g id="Group_86" data-name="Group 86" transform="translate(0 0)">
          <g id="Group_85" data-name="Group 85">
            <path id="Path_37" data-name="Path 37" d="M25.691,1.633,45.052-16.744C46.694-18.3,51.27-22.9,53.49-23.535l-5.436-1.741a5.546,5.546,0,0,1-.188,1.016c-.667,2.074-4.42,5.384-5.9,6.859L25.472-1.468,20.526-27.637c-.365-1.8-.907-4.738.109-6.431l-5.373-1.725c1.048,1.35,1.881,5.05,2.168,6.692L23.168.888,21.641,5.651c-.667,2.08-3.752,12.336-5.431,13.144L20.917,20.3C19.963,18.451,25,3.77,25.691,1.633Zm0,0" transform="translate(-15.262 35.793)" fill="#fff" stroke="#fff" stroke-width="1"/>
          </g>
        </g>
      </g>
      <g id="Group_90" data-name="Group 90" transform="translate(237.627 27.498)">
        <g id="Group_89" data-name="Group 89" transform="translate(0)">
          <g id="Group_88" data-name="Group 88">
            <path id="Path_38" data-name="Path 38" d="M26.665-27.713a2.443,2.443,0,0,0-.782-3.5,2.434,2.434,0,0,0-3.33.876,2.358,2.358,0,0,0,1.2,3.528L20.641-24.4l.886.521C22.632-24.5,25.889-26.384,26.665-27.713Zm0,0" transform="translate(-20.641 31.542)" fill="#fff" stroke="#fff" stroke-width="1"/>
          </g>
        </g>
      </g>
      <g id="Group_93" data-name="Group 93" transform="translate(233.416 47.655)">
        <g id="Group_92" data-name="Group 92" transform="translate(0 0)">
          <g id="Group_91" data-name="Group 91">
            <path id="Path_39" data-name="Path 39" d="M39.179,24.993c11.94-13.071-16.547-30.666-7.9-40.136,5.149-5.634,11.82-3.711,16.839.87C52.24-10.51,55.43-5.252,54.283.565L57.775-.592c-.125-5.759-3.893-11.716-8.011-15.479-6.108-5.582-14.426-7.792-20.607-1.022-10.684,11.7,17.97,29.1,7.9,40.136-5.973,6.536-14.009,4.4-19.883-.964C12.2,17.54,8.106,10.415,10.431,3.593L6.876,4.25c-.943,7.307,3.356,15.057,8.615,19.857C22.5,30.512,32.086,32.758,39.179,24.993Zm0,0" transform="translate(-6.746 21.292)" fill="#fff" stroke="#fff" stroke-width="1"/>
          </g>
        </g>
      </g>
    </g>
  </g>
</svg>
